<?xml version="1.0" encoding="utf-8"?>
<!-- Generator: Adobe Illustrator 18.0.0, SVG Export Plug-In . SVG Version: 6.00 Build 0)  -->
<!DOCTYPE svg PUBLIC "-//W3C//DTD SVG 1.1//EN" "http://www.w3.org/Graphics/SVG/1.1/DTD/svg11.dtd">
<svg version="1.1" id="Layer_1" xmlns="http://www.w3.org/2000/svg" xmlns:xlink="http://www.w3.org/1999/xlink" x="0px" y="0px"
	 width="306px" height="80px" viewBox="0 0 306 80" enable-background="new 0 0 306 80" xml:space="preserve">
<g>
	<g>
		<circle fill="#5CB7E6" cx="191.1" cy="40" r="40"/>
		<g>
			<path fill="#FFFFFF" d="M188.9,24.2h-12.3V58h-2.5V24.2h-12.4V22H189L188.9,24.2L188.9,24.2z"/>
			<path fill="#FFFFFF" d="M206.4,41.6L194.4,58h-3.1l13.2-18c-4.3-5.8-8.8-12.1-13.2-18h3.1l12.1,16.6l12-16.6h3.1
				c-4.3,5.9-8.8,12.2-13.2,18l13.2,18h-3.1L206.4,41.6z"/>
		</g>
	</g>
	<g>
		<g>
			<path fill="#263238" d="M20.1,33H13v19.5H7.6V33H0.5v-5.5h19.6C20.1,27.5,20.1,33,20.1,33z"/>
			<path fill="#263238" d="M28.3,43.2v9.3h-5.4v-25h10.6c4.5,0,9.4,0,9.4,7.3v0.6c0,1.7-0.1,4.6-2.3,6.4L45,52.6h-5.8l-3.7-9.3
				L28.3,43.2L28.3,43.2z M37.5,34.7c0-1.6-1.3-1.6-2.9-1.6h-6.2v4.8h7.3c1.8,0,1.8-0.9,1.8-2.2C37.5,35.6,37.5,34.7,37.5,34.7z"/>
			<path fill="#263238" d="M47.5,44.8V27.6h5.4v17.2c0,2.4,2.8,2.9,5,2.9s5.1-0.5,5.1-2.9V27.6h5.4v17.2c0,6.2-4.4,8-10.6,8
				C52.1,52.8,47.5,51,47.5,44.8z"/>
			<path fill="#263238" d="M72.7,41v-0.9c0-9,3.1-12.9,11.1-12.9C92,27.2,95,31.1,95,40.1V41c0,9.1-3.6,11.7-11.3,11.7
				C76.4,52.8,72.7,50.2,72.7,41z M78.1,38.8v3.4c0,4.1,2.1,5.4,5.6,5.4c3.8,0,5.9-1.4,5.9-5.4v-3.4c0-3.9-1.7-6.1-5.9-6.1
				C79.9,32.7,78.1,34.9,78.1,38.8z"/>
			<path fill="#263238" d="M113.5,52.5L104.7,37v15.5h-5.4v-25h6.5l9.1,16.1v-16h5.4v25L113.5,52.5L113.5,52.5z"/>
			<path fill="#263238" d="M134.9,38.2h9.8V51c-1,0.3-2,0.7-3,0.9c-1.8,0.5-4.4,0.9-7,0.9c-8.1,0-11.1-4-11.1-12.9
				s3.6-12.6,11.1-12.6c2.5,0,5,0.4,6.9,0.9c1.1,0.3,2.2,0.6,3.1,0.9l-1.7,4.9c-3-1.4-5.8-1.4-8.5-1.4c-3.9,0-5.5,2.8-5.5,6.8v0.9
				c0,4,1.6,7.2,5.6,7.2c1.5,0,3-0.1,4.7-0.4v-3.8H135L134.9,38.2L134.9,38.2z"/>
		</g>
		<g>
			<path fill="#808285" d="M246.4,27.6c4.6,0,9.3,0,9.3,7.3v0.9c0,1.6-0.2,3.3-2,4.7c1.9,1.3,2,2.5,2,4.5v1.4c0,6.2-4.7,6.2-9.3,6.2
				h-9.7v-25C236.6,27.6,246.4,27.6,246.4,27.6z M248.9,37.9c1.1,0,1.4-0.9,1.4-2.2v-1c0-1.6-1.5-1.6-3.1-1.6H242v4.8
				C242.1,37.8,248.9,37.8,248.9,37.9z M248.1,47.2c1.1,0,2.1,0,2.1-1.3v-1.1c0-1.2-0.2-1.5-1.7-1.5h-6.5v3.9
				C242.1,47.3,248.1,47.3,248.1,47.2z"/>
			<path fill="#808285" d="M259.5,27.6h5.4v25h-5.4V27.6z"/>
			<path fill="#808285" d="M268.9,44v-0.6c0-6.7,1.6-9.7,8.5-9.7c7,0,8.4,2.9,8.4,9.7V44c0,6.9-2.7,8.9-8.5,8.9
				C271.8,52.8,268.9,50.8,268.9,44z M274.2,42.8v1.5c0,2.6,0.8,3.4,3,3.4s3-0.8,3-3.4v-1.5c0-2.4-0.6-3.8-3-3.8
				C275,39,274.2,40.3,274.2,42.8z"/>
			<path fill="#808285" d="M305.5,52.5c0,6.6-1.9,8.3-8.5,8.3c-1.5,0-3.3-0.2-4.8-0.5c-0.8-0.1-1.7-0.3-2.5-0.5l0.8-4.9
				c0.8,0.2,1.5,0.3,2.3,0.5c1.3,0.2,2.9,0.4,4.1,0.4c2.4,0,3-0.6,3-3v-1.4c-1,1.4-2.6,1.4-3.4,1.4c-6.1,0-7.9-2.6-7.9-9.4v-0.5
				c0-7.1,2.6-9.3,6.8-9.3c1.7,0,3.2,0,4.7,1.6v-1.4h5.2v18.7H305.5z M300.1,47.2v-7.7c0-0.1-1.1-0.6-3-0.6c-2.1,0-2.8,1-2.8,3.8v1
				c0,2.6,0.8,3.8,3.4,3.8C298.6,47.5,299.4,47.5,300.1,47.2z"/>
		</g>
	</g>
</g>
</svg>
